<svg width="48" height="48" viewBox="0 0 48 48" fill="none" xmlns="http://www.w3.org/2000/svg">
<g clip-path="url(#clip0_16:915)">
<path d="M47.2414 29.8409C44.036 42.6981 31.0137 50.5228 18.1549 47.3166C5.30151 44.1112 -2.52317 31.0881 0.683608 18.2319C3.88757 5.37321 16.9099 -2.45205 29.7647 0.753318C42.6226 3.95869 50.4471 16.983 47.2414 29.8409Z" fill="#F3BA2F"/>
<path d="M17.7853 21.4467L24 15.232L30.2176 21.4493L33.8336 17.8333L24 8L14.1696 17.8304L17.7855 21.4464L17.7853 21.4467ZM8 24L11.6161 20.3834L15.232 23.9992L11.6159 27.6154L8 24ZM17.7853 26.5537L24 32.768L30.2175 26.5508L33.8354 30.1649L33.8336 30.1668L24 40L14.1696 30.1696L14.1645 30.1645L17.7857 26.5533L17.7853 26.5537ZM32.768 24.0015L36.3841 20.3854L40 24.0013L36.384 27.6174L32.768 24.0015Z" fill="white"/>
<path d="M27.6675 23.9981H27.669L24 20.3289L21.2881 23.04L20.9765 23.3517L20.334 23.9944L20.3289 23.9994L20.334 24.0046L24 27.6712L27.6693 24.0019L27.6711 23.9999L27.6677 23.9981" fill="white"/>
</g>
<defs>
<clipPath id="clip0_16:915">
<rect width="48.0002" height="48" fill="white"/>
</clipPath>
</defs>
</svg>
