<svg width="49" height="48" viewBox="0 0 49 48" fill="none" xmlns="http://www.w3.org/2000/svg">
<g clip-path="url(#clip0_16:880)">
<path d="M47.2766 29.8409C44.0712 42.6981 31.0489 50.5228 18.1901 47.3166C5.33666 44.1112 -2.48802 31.0881 0.718765 18.2319C3.92273 5.37321 16.9451 -2.45205 29.7999 0.753318C42.6577 3.95869 50.4819 16.9832 47.2762 29.8411L47.2764 29.8409H47.2766Z" fill="#F7931A"/>
<path d="M34.6094 20.5748C35.0871 17.3809 32.6555 15.6641 29.3305 14.5188L30.4091 10.1924L27.7755 9.53619L26.7255 13.7487C26.0331 13.576 25.3221 13.4133 24.6155 13.252L25.6731 9.0117L23.0412 8.35547L21.9619 12.6804C21.389 12.55 20.8262 12.4211 20.2803 12.2852L20.2833 12.2716L16.6515 11.3647L15.9509 14.1776C15.9509 14.1776 17.9049 14.6254 17.8637 14.653C18.9301 14.9192 19.123 15.6252 19.091 16.1847L17.8623 21.1135C17.9357 21.1321 18.031 21.1591 18.1361 21.2014C18.0482 21.1795 17.9547 21.1557 17.8577 21.1325L16.1355 28.037C16.0051 28.361 15.6743 28.8473 14.9287 28.6626C14.9551 28.7009 13.0146 28.1849 13.0146 28.1849L11.707 31.1996L15.1342 32.0539C15.7718 32.2138 16.3966 32.3811 17.0119 32.5384L15.9221 36.9144L18.5526 37.5707L19.6319 33.2411C20.3505 33.4362 21.0479 33.6161 21.7307 33.7858L20.6551 38.0949L23.2888 38.7511L24.3785 34.3833C28.8693 35.2333 32.2461 34.8906 33.6674 30.8286C34.8127 27.5583 33.6104 25.6719 31.2478 24.4418C32.9686 24.045 34.2648 22.9131 34.6104 20.5752L34.6095 20.5746L34.6094 20.5748ZM28.5923 29.0124C27.7784 32.2828 22.2721 30.5149 20.4868 30.0716L21.933 24.2742C23.7181 24.7198 29.4429 25.6018 28.5924 29.0124H28.5923ZM29.4067 20.5274C28.6643 23.5022 24.0813 21.9909 22.5947 21.6203L23.9058 16.3623C25.3925 16.7329 30.1802 17.4246 29.407 20.5274H29.4067Z" fill="white"/>
</g>
<defs>
<clipPath id="clip0_16:880">
<rect width="48" height="48" fill="white" transform="translate(0.0351562)"/>
</clipPath>
</defs>
</svg>
