<svg width="49" height="48" viewBox="0 0 49 48" fill="none" xmlns="http://www.w3.org/2000/svg">
<g clip-path="url(#clip0_16:898)">
<path d="M47.0336 29.7806L47.0054 29.894C43.7852 42.5497 30.9375 50.2374 18.2505 47.074C5.53113 43.9021 -2.21203 31.0146 0.961332 18.2924L0.961348 18.2923C4.13193 5.56763 17.0186 -2.17607 29.7394 0.995891L29.7999 0.753318L29.7394 0.995894C42.4632 4.16786 50.206 17.0567 47.0336 29.7806Z" fill="white" stroke="#D1D2D4" stroke-width="0.5"/>
<g clip-path="url(#clip1_16:898)">
<path d="M24.0306 6L23.7891 6.82039V30.6241L24.0306 30.8651L35.0798 24.3338L24.0306 6Z" fill="#343434"/>
<path d="M24.028 6L12.9785 24.3338L24.028 30.8651V19.3114V6Z" fill="#8C8C8C"/>
<path d="M24.0307 32.9537L23.8945 33.1197V41.5989L24.0307 41.9963L35.0866 26.4258L24.0307 32.9537Z" fill="#3C3C3B"/>
<path d="M24.028 41.9963V32.9537L12.9785 26.4258L24.028 41.9963Z" fill="#8C8C8C"/>
<path d="M24.0264 30.8691L35.0756 24.3378L24.0264 19.3154V30.8691Z" fill="#141414"/>
<path d="M12.9785 24.3378L24.028 30.8691V19.3154L12.9785 24.3378Z" fill="#393939"/>
</g>
</g>
<defs>
<clipPath id="clip0_16:898">
<rect width="48" height="48" fill="white" transform="translate(0.0351562)"/>
</clipPath>
<clipPath id="clip1_16:898">
<rect width="36" height="36" fill="white" transform="translate(6.03516 6)"/>
</clipPath>
</defs>
</svg>
