<svg width="48" height="48" viewBox="0 0 48 48" fill="none" xmlns="http://www.w3.org/2000/svg">
<path d="M24 48C37.3001 48 48 37.3001 48 24C48 10.6999 37.3001 0 24 0C10.6999 0 0 10.6999 0 24C0 37.3001 10.6999 48 24 48Z" fill="#2775CA"/>
<path d="M30.6001 27.7997C30.6001 24.2998 28.5001 23.0998 24.3001 22.5999C21.3001 22.1998 20.7001 21.3999 20.7001 19.9997C20.7001 18.5996 21.7002 17.6998 23.7001 17.6998C25.5001 17.6998 26.5002 18.2998 27.0001 19.7998C27.1002 20.0998 27.4002 20.2997 27.7001 20.2997H29.3C29.7001 20.2997 30.0001 19.9997 30.0001 19.5999V19.4998C29.6 17.2997 27.8 15.5998 25.5001 15.3999V12.9999C25.5001 12.5998 25.2001 12.2998 24.7002 12.1997H23.2002C22.8001 12.1997 22.5001 12.4997 22.4 12.9999V15.2998C19.4 15.6999 17.5002 17.6998 17.5002 20.1999C17.5002 23.4999 19.5001 24.7997 23.7001 25.2999C26.5002 25.7998 27.4002 26.3998 27.4002 27.9999C27.4002 29.6 26 30.6999 24.1002 30.6999C21.5 30.6999 20.6 29.5997 20.3 28.0997C20.2002 27.6999 19.9002 27.4997 19.6002 27.4997H17.9C17.5002 27.4997 17.2002 27.7997 17.2002 28.1998V28.2999C17.6 30.7997 19.2001 32.5997 22.5001 33.0999V35.4999C22.5001 35.8997 22.8001 36.1997 23.3 36.2998H24.8C25.2001 36.2998 25.5001 35.9998 25.6002 35.4999V33.0999C28.6001 32.5997 30.6001 30.4997 30.6001 27.7997Z" fill="white"/>
<path d="M18.9 38.3001C11.1 35.5002 7.09992 26.8002 10.0001 19.1001C11.5001 14.9001 14.8001 11.7002 18.9 10.2002C19.3001 10.0002 19.5 9.70024 19.5 9.20008V7.80016C19.5 7.40008 19.3001 7.10008 18.9 7.00024C18.7999 7.00024 18.6 7.00024 18.4999 7.10008C9 10.1001 3.79992 20.2002 6.79992 29.7002C8.59992 35.3001 12.9 39.6002 18.4999 41.4002C18.9 41.6001 19.3001 41.4002 19.3999 41.0001C19.5 40.9002 19.5 40.8002 19.5 40.6002V39.2001C19.5 38.9001 19.2 38.5002 18.9 38.3001ZM29.5001 7.10008C29.1 6.90016 28.6999 7.10008 28.6001 7.50016C28.5 7.60024 28.5 7.70008 28.5 7.90024V9.30016C28.5 9.70024 28.8 10.1001 29.1 10.3002C36.9 13.1001 40.9001 21.8001 37.9999 29.5002C36.4999 33.7002 33.1999 36.9002 29.1 38.4002C28.6999 38.6001 28.5 38.9001 28.5 39.4002V40.8002C28.5 41.2002 28.6999 41.5002 29.1 41.6001C29.2001 41.6001 29.4 41.6001 29.5001 41.5002C39 38.5002 44.2001 28.4001 41.2001 18.9002C39.4001 13.2002 34.9999 8.90008 29.5001 7.10008Z" fill="white"/>
</svg>
