<svg width="49" height="48" viewBox="0 0 49 48" fill="none" xmlns="http://www.w3.org/2000/svg">
<path d="M47.2766 29.8057C44.0712 42.663 31.0489 50.4877 18.1901 47.2815C5.33666 44.0761 -2.48802 31.0529 0.718765 18.1967C3.92273 5.33806 16.9451 -2.48721 29.7999 0.718162C42.6577 3.92353 50.4819 16.9481 47.2762 29.8059L47.2764 29.8057H47.2766Z" fill="#50AF95"/>
<path fill-rule="evenodd" clip-rule="evenodd" d="M27.0719 24.7876C26.9022 24.8003 26.0254 24.8527 24.0697 24.8527C22.5142 24.8527 21.4097 24.806 21.0222 24.7876C15.0107 24.5232 10.5237 23.4767 10.5237 22.2238C10.5237 20.9709 15.0107 19.9258 21.0222 19.6571V23.7454C21.4154 23.7737 22.541 23.8401 24.0966 23.8401C25.9632 23.8401 26.898 23.7624 27.0663 23.7468V19.66C33.065 19.9272 37.5422 20.9737 37.5422 22.2238C37.5422 23.4739 33.0664 24.5203 27.0663 24.7862L27.0719 24.7876ZM27.0719 19.2371V15.5788H35.4436V10H12.6506V15.5788H21.0208V19.2357C14.2174 19.5482 9.10107 20.8959 9.10107 22.5109C9.10107 24.1258 14.2174 25.4721 21.0208 25.786V37.5092H27.0705V25.7818C33.8583 25.4692 38.9662 24.123 38.9662 22.5094C38.9662 20.8959 33.8626 19.5497 27.0705 19.2357L27.0719 19.2371Z" fill="white"/>
</svg>
