<svg width="48" height="48" viewBox="0 0 48 48" fill="none" xmlns="http://www.w3.org/2000/svg">
<circle cx="24" cy="24" r="24" fill="white"/>
<mask id="mask0_16:884" style="mask-type:alpha" maskUnits="userSpaceOnUse" x="0" y="0" width="48" height="48">
<circle cx="24" cy="24" r="24" fill="white"/>
</mask>
<g mask="url(#mask0_16:884)">
<path fill-rule="evenodd" clip-rule="evenodd" d="M24 24L30 0H18L24 24ZM24 24L18 48H30L24 24ZM24 24L48 18V30L24 24ZM24 24L36.7279 45.2132L45.2132 36.7279L24 24ZM24 24L36.7279 2.78677L45.2132 11.2721L24 24ZM24 24L11.2721 45.2132L2.78681 36.7279L24 24ZM24 24L0 30V18L24 24ZM24 24L2.78682 11.2721L11.2721 2.78681L24 24Z" fill="#EF1010"/>
</g>
<g filter="url(#filter0_i_16:884)">
<circle cx="24" cy="24" r="21.375" fill="#EF1010"/>
</g>
<g clip-path="url(#clip0_16:884)">
<path d="M38.6251 26.4144C38.5845 26.0697 38.2723 25.3804 37.3478 25.3804C36.1922 25.3804 36.1313 26.536 36.1313 26.7185C36.1313 27.7403 36.9261 28.4939 37.7019 29.2296C38.0345 29.5449 38.3635 29.8569 38.6251 30.1854C38.8866 29.8569 39.2157 29.5449 39.5482 29.2296C40.3241 28.4939 41.1188 27.7403 41.1188 26.7185C41.1188 26.536 41.058 25.3804 39.9024 25.3804C38.9779 25.3804 38.6656 26.0697 38.6251 26.4144Z" fill="#AA1010"/>
</g>
<g clip-path="url(#clip1_16:884)">
<path d="M38.6282 17.5781C37.9041 17.5781 36.6972 18.3023 37.6627 19.5091C37.1397 19.4086 36.0938 19.4729 36.0938 20.535C36.0938 21.8625 37.4817 22.3453 38.3265 21.5608C38.427 21.7217 38.4713 22.2125 37.8437 22.8884H39.4127C38.7851 22.2125 38.8293 21.7217 38.9299 21.5608C39.7747 22.3453 41.1626 21.8625 41.1626 20.535C41.1626 19.4729 40.1167 19.4086 39.5937 19.5091C40.5592 18.3023 39.3523 17.5781 38.6282 17.5781Z" fill="#AA1010"/>
</g>
<g clip-path="url(#clip2_16:884)">
<path d="M8.09183 18.7791C7.47933 19.3347 6.9751 19.7921 6.9751 20.666C6.9751 22.4805 8.91058 21.9967 8.97107 21.6943C8.97107 21.6943 9.27348 22.0572 8.54768 23.0249H10.1203C9.39445 22.0572 9.69687 21.6943 9.69687 21.6943C9.75736 21.9967 11.6928 22.4805 11.6928 20.666C11.6928 19.7921 11.1886 19.3347 10.5761 18.7791C10.1712 18.4118 9.71908 18.0016 9.33397 17.3999C8.94885 18.0016 8.49669 18.4118 8.09183 18.7791Z" fill="#AA1010"/>
</g>
<g clip-path="url(#clip3_16:884)">
<path d="M9.3751 24.8699L9.4428 24.996C10.018 26.0677 10.8127 27.0061 11.7751 27.7499C10.8127 28.4936 10.018 29.432 9.4428 30.5037L9.3751 30.6299L9.3074 30.5037C8.73222 29.432 7.93749 28.4936 6.9751 27.7499C7.93749 27.0061 8.73222 26.0677 9.3074 24.996L9.3751 24.8699Z" fill="#AA1010"/>
</g>
<g filter="url(#filter1_d_16:884)">
<path d="M36.375 14.8668L31.4762 16.4293C29.4849 14.4503 26.7954 13.3455 23.9962 13.3568C21.197 13.368 18.5163 14.4944 16.5409 16.4894L11.625 14.9698L14.339 19.726C13.7494 21.0931 13.4583 22.5716 13.4855 24.0616C13.4957 26.6713 14.4568 29.1866 16.187 31.1312C17.9172 33.0757 20.2962 34.3145 22.8734 34.6129L24.0939 36.7162L25.2972 34.6043C26.9486 34.4062 28.5305 33.8201 29.9151 32.8932C31.2996 31.9663 32.4479 30.7247 33.2671 29.2687C34.0863 27.8128 34.5535 26.1834 34.6308 24.5122C34.7081 22.841 34.3935 21.175 33.7122 19.6488L36.375 14.8668ZM24 14.6779C26.2064 14.6719 28.3426 15.4573 30.0253 16.8929L26.7225 17.9403L24.0341 22.6794L21.2946 17.9575L17.9491 16.9358C19.6232 15.4918 21.7521 14.6917 23.9573 14.6779H24ZM17.2322 30.3717C15.6473 28.6565 14.7636 26.4033 14.7572 24.0616C14.7481 23.0947 14.8922 22.1326 15.1839 21.2113L19.0415 27.9507L20.1339 26.371L15.3034 17.9317L20.1424 19.4255L23.0783 24.4908L19.9034 29.496L22.0115 33.1362C20.1625 32.7282 18.4808 31.764 17.1895 30.3717H17.2322ZM24.0597 33.2392L21.8664 29.539L23.9744 26.2251L26.0739 29.6592L24.0597 33.2392ZM33.3026 23.9843C33.3146 26.0991 32.6116 28.1552 31.3089 29.8151C30.0063 31.4749 28.1813 32.64 26.1336 33.119L28.1478 29.5733L24.99 24.4908L27.8917 19.3912L32.7222 17.8544L27.8405 26.3796L28.8988 28.028L32.7905 21.0997C33.1058 22.0286 33.2701 23.0027 33.277 23.9843H33.3026Z" fill="white"/>
</g>
<defs>
<filter id="filter0_i_16:884" x="2.625" y="2.625" width="42.75" height="42.75" filterUnits="userSpaceOnUse" color-interpolation-filters="sRGB">
<feFlood flood-opacity="0" result="BackgroundImageFix"/>
<feBlend mode="normal" in="SourceGraphic" in2="BackgroundImageFix" result="shape"/>
<feColorMatrix in="SourceAlpha" type="matrix" values="0 0 0 0 0 0 0 0 0 0 0 0 0 0 0 0 0 0 127 0" result="hardAlpha"/>
<feOffset/>
<feGaussianBlur stdDeviation="1.5"/>
<feComposite in2="hardAlpha" operator="arithmetic" k2="-1" k3="1"/>
<feColorMatrix type="matrix" values="0 0 0 0 0.495833 0 0 0 0 0.074375 0 0 0 0 0.074375 0 0 0 1 0"/>
<feBlend mode="normal" in2="shape" result="effect1_innerShadow_16:884"/>
</filter>
<filter id="filter1_d_16:884" x="8.76465" y="10.4963" width="30.4707" height="29.0803" filterUnits="userSpaceOnUse" color-interpolation-filters="sRGB">
<feFlood flood-opacity="0" result="BackgroundImageFix"/>
<feColorMatrix in="SourceAlpha" type="matrix" values="0 0 0 0 0 0 0 0 0 0 0 0 0 0 0 0 0 0 127 0" result="hardAlpha"/>
<feOffset/>
<feGaussianBlur stdDeviation="1.43018"/>
<feComposite in2="hardAlpha" operator="out"/>
<feColorMatrix type="matrix" values="0 0 0 0 0.494118 0 0 0 0 0.0745098 0 0 0 0 0.0745098 0 0 0 1 0"/>
<feBlend mode="normal" in2="BackgroundImageFix" result="effect1_dropShadow_16:884"/>
<feBlend mode="normal" in="SourceGraphic" in2="effect1_dropShadow_16:884" result="shape"/>
</filter>
<clipPath id="clip0_16:884">
<rect width="5.25" height="5.25" fill="white" transform="translate(36 25.125)"/>
</clipPath>
<clipPath id="clip1_16:884">
<rect width="5.625" height="5.625" fill="white" transform="translate(35.8125 17.4375)"/>
</clipPath>
<clipPath id="clip2_16:884">
<rect width="6" height="6" fill="white" transform="translate(6.375 17.25)"/>
</clipPath>
<clipPath id="clip3_16:884">
<rect width="6" height="6" fill="white" transform="translate(6.375 24.75)"/>
</clipPath>
</defs>
</svg>
