<svg width="49" height="48" viewBox="0 0 49 48" fill="none" xmlns="http://www.w3.org/2000/svg">
<path d="M24.8999 48C38.1547 48 48.8999 37.2581 48.8999 24.0073C48.8999 10.7565 38.1547 0.0146484 24.8999 0.0146484C11.6451 0.0146484 0.899902 10.7565 0.899902 24.0073C0.899902 37.2581 11.6451 48 24.8999 48Z" fill="url(#paint0_radial_8:484)"/>
<path d="M48.4242 19.2757C48.4164 19.2523 48.4164 19.229 48.4086 19.2056L41.8823 20.5151L41.8979 20.5853C42.3502 22.838 42.358 25.1141 41.9135 27.3434L48.4476 28.6296C49.0402 25.6286 49.0636 22.4638 48.4242 19.2757Z" fill="#DA1F2B"/>
<path d="M7.90185 27.406C7.44961 25.1611 7.44181 22.9005 7.87846 20.679L1.34435 19.4006C0.759552 22.3939 0.736159 25.543 1.36774 28.7155C1.36774 28.7233 1.37554 28.7311 1.37554 28.7467L7.90185 27.445V27.406Z" fill="#DA1F2B"/>
<path d="M21.4846 6.99885C23.7225 6.54674 25.9837 6.53895 28.2059 6.97546L29.4768 0.44334C26.4905 -0.141278 23.3482 -0.164663 20.1747 0.474519C20.1591 0.474519 20.1435 0.482314 20.1201 0.482314L21.4301 7.00664L21.4846 6.99885Z" fill="#DA1F2B"/>
<path d="M10.5063 33.6729L4.98584 37.391C6.75582 40.0257 9.02483 42.255 11.6291 43.9855L15.3094 38.4433C13.3991 37.165 11.7851 35.567 10.5063 33.6729Z" fill="#DA1F2B"/>
<path d="M39.2782 14.2948L44.7909 10.5689C43.0131 7.942 40.7441 5.71266 38.1398 3.98999L34.4673 9.53996C36.3776 10.8027 37.9995 12.4007 39.2782 14.2948Z" fill="#DA1F2B"/>
<path d="M34.5684 38.3888L38.2799 43.9154C40.9153 42.146 43.1532 39.8855 44.8764 37.282L39.3325 33.595C38.0615 35.5047 36.4631 37.1183 34.5684 38.3888Z" fill="#DA1F2B"/>
<path d="M15.2079 9.61791L11.4886 4.09912C8.86092 5.87636 6.6231 8.13688 4.8999 10.7404L10.4516 14.4196C11.7147 12.5098 13.3132 10.8885 15.2079 9.61791Z" fill="#DA1F2B"/>
<path d="M21.5624 41.008L20.2837 47.5401C23.2778 48.1326 26.4435 48.1559 29.6248 47.5168C29.6326 47.5168 29.6326 47.5168 29.6404 47.5168L28.3149 40.9924C26.0615 41.4367 23.7925 41.4445 21.5624 41.008Z" fill="#DA1F2B"/>
<path d="M48.3773 28.9803L48.5098 28.31L42.7554 27.1719C42.9348 26.143 43.0283 25.0907 43.0283 24.0072C43.0283 22.8769 42.927 21.7779 42.7242 20.71L48.4708 19.5563L48.3383 18.886L42.5839 20.0396C42.1082 17.9116 41.2583 15.9239 40.1044 14.1545L44.9699 10.865L44.5878 10.296L39.7223 13.5854C38.4825 11.8316 36.9465 10.3038 35.1765 9.07998L38.4123 4.18479L37.8431 3.81063L34.6073 8.69803C32.8217 7.55998 30.8178 6.73372 28.6813 6.27382L29.812 0.521185L29.1414 0.388672L28.0186 6.1491C27.0049 5.96982 25.9601 5.88407 24.8997 5.88407C23.7769 5.88407 22.6774 5.98541 21.617 6.18028L20.463 0.435441L19.7925 0.567955L20.9465 6.32059C18.8178 6.79608 16.8295 7.64572 15.0517 8.79157L11.7691 3.92755L11.1999 4.3095L14.4825 9.17352C12.7281 10.4051 11.1999 11.9485 9.9757 13.7179L5.08681 10.4753L4.71254 11.0443L9.60143 14.287C8.46303 16.072 7.62872 18.0675 7.17648 20.2111L1.41429 19.0886L1.28174 19.759L7.04392 20.8815C6.86458 21.9026 6.77102 22.9471 6.77102 24.015C6.77102 25.1297 6.87238 26.221 7.06731 27.2811L1.31293 28.4269L1.44548 29.0973L7.19987 27.9514C7.6755 30.0794 8.51761 32.0749 9.66381 33.8444L4.79051 37.126L5.17258 37.695L10.0459 34.4134C11.2778 36.175 12.8217 37.7028 14.5839 38.9266L11.3402 43.814L11.9094 44.196L15.1531 39.3086C16.9387 40.4466 18.9348 41.2807 21.0712 41.7406L19.9406 47.501L20.6112 47.6335L21.7418 41.8731C22.7632 42.0524 23.8159 42.1459 24.8919 42.1459C25.9991 42.1459 27.0751 42.0446 28.1277 41.8575L29.2973 47.6024L29.9679 47.4698L28.7983 41.725C30.9348 41.2573 32.9309 40.4077 34.7164 39.2618L37.9913 44.1336L38.5605 43.7517L35.2856 38.8799C37.0478 37.6483 38.5761 36.1127 39.8003 34.3432L44.6891 37.5937L45.0712 37.0247L40.1823 33.7586C41.3207 31.9736 42.1628 29.9781 42.6229 27.8423L48.3773 28.9803Z" fill="url(#paint1_radial_8:484)"/>
<path d="M24.8997 41.3744C34.4941 41.3744 42.272 33.599 42.272 24.0074C42.272 14.4159 34.4941 6.64038 24.8997 6.64038C15.3052 6.64038 7.52734 14.4159 7.52734 24.0074C7.52734 33.599 15.3052 41.3744 24.8997 41.3744Z" fill="url(#paint2_radial_8:484)"/>
<path d="M32.5491 31.9034L32.6426 31.8099C34.7401 29.7286 35.9019 26.9537 35.9019 23.9916C35.9019 21.0295 34.7401 18.2546 32.6426 16.1733L32.5413 16.072L34.5998 12.4863L29.6407 14.0453L29.0871 13.8115C27.7537 13.2736 26.3658 13.0008 24.9233 13.0008C23.4808 13.0008 22.0851 13.2736 20.7596 13.8115L20.1982 14.0453L15.2235 12.5175L17.2664 16.1032C17.2274 16.1265 17.1884 16.1577 17.165 16.1811C15.0832 18.2623 13.9214 21.0373 13.9214 23.9994C13.9214 26.9614 15.0832 29.7364 17.1806 31.8177C17.2196 31.8566 17.2586 31.88 17.3132 31.9112L15.2547 35.528L20.1904 33.9846L20.7674 34.2185C22.1007 34.7563 23.4886 35.0292 24.9311 35.0292C26.3736 35.0292 27.7615 34.7408 29.0949 34.2185L29.6719 33.9846V33.9691L34.6309 35.5125L32.5491 31.9034ZM24.8999 14.0219C25.9838 14.0219 27.0442 14.1934 28.0578 14.5286L27.0208 14.856L24.8999 18.543L22.7791 14.8638L21.742 14.5364C22.7557 14.209 23.8161 14.0219 24.8999 14.0219ZM25.6719 22.5495L26.5062 23.9916L25.0247 26.5405L24.9077 26.712L24.1514 25.4648L23.3171 24.0228L24.783 21.4738L24.8999 21.3024L25.6719 22.5495ZM21.0637 25.2544L17.8044 30.9914C15.9487 29.1206 14.9272 26.6341 14.9272 23.9916C14.9272 21.3569 15.9331 18.8859 17.781 17.0152L20.9857 22.6275L21.8356 21.4115L18.0773 14.8248L21.8746 16.0018L24.128 19.8993L23.6056 20.8191L21.5315 23.9994L23.1923 26.4704L24.1202 28.0839L21.8668 31.9814L18.0851 33.1584L21.8824 26.5249L21.0637 25.2544ZM24.8999 33.9924C23.8161 33.9924 22.7401 33.821 21.7187 33.4858L22.7791 33.1584L24.8999 29.4792L27.0208 33.1584L28.0656 33.4858C27.0598 33.8054 25.9994 33.9924 24.8999 33.9924ZM27.9409 32.0125L25.6875 28.1151L26.2099 27.1953L28.1514 24.015L26.6075 21.5284L25.6875 19.9071L27.9409 16.0096L31.7226 14.8326L27.9409 21.4583L28.7674 22.7444L32.0266 17.0074C33.8746 18.8781 34.896 21.3569 34.896 23.9838C34.896 26.6107 33.8902 29.0895 32.0266 30.9602L28.8454 25.3869L27.9799 26.5951L31.7382 33.1818L27.9409 32.0125Z" fill="url(#paint3_linear_8:484)"/>
<defs>
<radialGradient id="paint0_radial_8:484" cx="0" cy="0" r="1" gradientUnits="userSpaceOnUse" gradientTransform="translate(24.8999 24.007) scale(23.997 23.9897)">
<stop offset="0.2015" stop-color="#222222"/>
<stop offset="0.4931" stop-color="#1F1F1F"/>
<stop offset="0.7408" stop-color="#141414"/>
<stop offset="0.9717" stop-color="#030303"/>
<stop offset="1"/>
</radialGradient>
<radialGradient id="paint1_radial_8:484" cx="0" cy="0" r="1" gradientUnits="userSpaceOnUse" gradientTransform="translate(25.963 24.0035) scale(45.4373 45.4235)">
<stop stop-color="#C69C3E"/>
<stop offset="0.2279" stop-color="#FDDD9E"/>
<stop offset="0.414" stop-color="#E9BE5A"/>
<stop offset="0.586" stop-color="#94690C"/>
<stop offset="0.7721" stop-color="#7B4900"/>
<stop offset="1" stop-color="#A2781C"/>
</radialGradient>
<radialGradient id="paint2_radial_8:484" cx="0" cy="0" r="1" gradientUnits="userSpaceOnUse" gradientTransform="translate(24.8997 24.0071) scale(17.3699 17.3646)">
<stop offset="0.2015" stop-color="#222222"/>
<stop offset="0.4931" stop-color="#1F1F1F"/>
<stop offset="0.7408" stop-color="#141414"/>
<stop offset="0.9717" stop-color="#030303"/>
<stop offset="1"/>
</radialGradient>
<linearGradient id="paint3_linear_8:484" x1="31.7229" y1="13.3522" x2="17.723" y2="35.2832" gradientUnits="userSpaceOnUse">
<stop stop-color="#A86A18"/>
<stop offset="0.1244" stop-color="#F5CE5B"/>
<stop offset="0.2289" stop-color="#F1D99C"/>
<stop offset="0.3284" stop-color="#F5F7BB"/>
<stop offset="0.5771" stop-color="#DBB054"/>
<stop offset="0.7363" stop-color="#F3C954"/>
<stop offset="0.8408" stop-color="#F1CF65"/>
<stop offset="0.9602" stop-color="#A86A18"/>
</linearGradient>
</defs>
</svg>
